<svg xmlns="http://www.w3.org/2000/svg" width="213" height="51" viewBox="0 0 213 51"><path d="M31.1.16H178.8A6.77,6.77,0,0,1,185.57,7l-.09,34.8A6.59,6.59,0,0,1,184,46a14.63,14.63,0,0,1-9.51,5.11,7.69,7.69,0,0,1-.83,0H36.39a7.5,7.5,0,0,1-.82,0A14.64,14.64,0,0,1,26,46a6.58,6.58,0,0,1-1.48-4.19L24.33,7A6.77,6.77,0,0,1,31.1.16Z" fill="#fff" fill-rule="evenodd"/><path d="M76.39,19.45h-.12L64.51,17.73a1.37,1.37,0,0,1-1.07-1.35V11.67a.76.76,0,0,1,.72-.85,1.26,1.26,0,0,1,.28,0l11.81,3.79a1.59,1.59,0,0,1,.93,1.42v2.43a.86.86,0,0,1-.79.94M64.37,27a.94.94,0,0,1-.93-1V21.29a1,1,0,0,1,1-1.07h.08l11.75,1a1.13,1.13,0,0,1,.93,1.17v2.43A1.15,1.15,0,0,1,76.24,26L64.45,27h-.08m-.21,9.39a.75.75,0,0,1-.72-.85V30.83a1.36,1.36,0,0,1,1.07-1.35l11.76-1.7h.11a.85.85,0,0,1,.79.94v2.43a1.54,1.54,0,0,1-.92,1.41L64.44,36.34a.87.87,0,0,1-.28,0" fill="#f28700" fill-rule="evenodd"/><path d="M45.8,21a.85.85,0,0,1-.8-.94v-.39A2,2,0,0,1,46,18l14.83-7.09a1,1,0,0,1,.34-.09c.34,0,.57.3.57.77v4.73a1.47,1.47,0,0,1-1,1.41L46,21a.68.68,0,0,1-.2,0m15,6H60.7L46,25.12a1.31,1.31,0,0,1-1-1.31v-.4a1.3,1.3,0,0,1,1-1.31L60.7,20.22h.12a1,1,0,0,1,.91,1V26a1.1,1.1,0,0,1-.27.74.82.82,0,0,1-.64.29m.34,9.39a.67.67,0,0,1-.34-.09L46,29.22a2,2,0,0,1-1-1.68v-.4a.85.85,0,0,1,.8-.94l.2,0,14.69,3.26a1.48,1.48,0,0,1,1,1.42v4.73a.9.9,0,0,1-.17.57.5.5,0,0,1-.4.19" fill="#26338c" fill-rule="evenodd"/><path d="M84.49,31.45h3.15V15.56H84.49ZM92.7,27.1a2.4,2.4,0,0,0,2.63,2.39,6.38,6.38,0,0,0,2.84-.59l.71,2a8.47,8.47,0,0,1-3.91.79c-3.34,0-5.26-2.2-5.26-5.68s1.78-5.63,4.92-5.63,4.75,2.15,4.61,5.83l-6.54.93Zm1.8-4.9c-1.29,0-2.1,1.12-2,3.36L96.31,25C96.31,23.05,95.66,22.2,94.5,22.2Zm10.71,9.45c-3.15,0-4.78-1.17-4.78-3.44,0-2.81,2.82-3.64,6.1-3.94v-.51c0-1.13-.77-1.46-1.93-1.46a7.28,7.28,0,0,0-2.83.67l-.69-1.8a10.54,10.54,0,0,1,4.11-.83c2.47,0,4.29,1,4.29,4v6.51a9.43,9.43,0,0,1-4.27.81Zm1.32-5.93c-1.91.18-3.14.63-3.14,2.37,0,1.28.73,1.82,2,1.82a2.72,2.72,0,0,0,1.16-.22Zm7.89,5.91a6.08,6.08,0,0,1-3.2-.79l.81-2a3.31,3.31,0,0,0,1.94.63,1.24,1.24,0,0,0,1.36-1.2c0-.73-.39-1.13-1.4-1.54-2-.78-2.45-1.9-2.45-3a3.41,3.41,0,0,1,3.65-3.36,5.54,5.54,0,0,1,3.13.79l-.77,1.8a2.81,2.81,0,0,0-1.65-.57,1.13,1.13,0,0,0-1.26,1.14c0,.73.55,1.13,1.4,1.49,2.1.9,2.59,1.93,2.59,3.2,0,1.9-1.56,3.44-4.15,3.44m8.7-4.53a2.39,2.39,0,0,0,2.63,2.39,6.3,6.3,0,0,0,2.83-.59l.71,2a8.43,8.43,0,0,1-3.9.79c-3.34,0-5.27-2.2-5.27-5.68s1.78-5.63,4.92-5.63,4.76,2.15,4.62,5.83l-6.54.93Zm1.8-4.9c-1.29,0-2.1,1.12-2,3.36l3.8-.57C126.72,23.05,126.07,22.2,124.92,22.2Zm18.15,9.25h-2.91l-1.56-5.91a9.18,9.18,0,0,1-.22-1.5h0a7.64,7.64,0,0,1-.25,1.5l-1.59,5.91h-2.9l-3-10.91h3.13l1.32,6.3a10.32,10.32,0,0,1,.2,1.57h0a7.41,7.41,0,0,1,.27-1.57l1.65-6.3h2.59l1.56,6.3a12.85,12.85,0,0,1,.27,1.57h0a9.09,9.09,0,0,1,.2-1.59l1.39-6.28h2.78l-3,10.91ZM150,27.1a2.4,2.4,0,0,0,2.63,2.39,6.38,6.38,0,0,0,2.84-.59l.71,2a8.47,8.47,0,0,1-3.91.79c-3.34,0-5.26-2.2-5.26-5.68s1.78-5.63,4.92-5.63,4.75,2.15,4.61,5.83L150,27.1Zm1.81-4.9c-1.3,0-2.11,1.12-2,3.36l3.81-.57C153.62,23.05,153,22.2,151.82,22.2Zm10.68,9.45a7.69,7.69,0,0,1-3.95-.81V15.56h3.16v5.25a4.24,4.24,0,0,1,2-.41c2.57,0,4.35,2.06,4.35,5.28,0,3.83-2,6-5.58,6m.34-9.45a2.26,2.26,0,0,0-1.13.24v7.15a2.65,2.65,0,0,0,1,.16c1.6,0,2.29-1.42,2.29-3.86,0-2.13-.45-3.69-2.13-3.69" fill="#26338c" fill-rule="evenodd"/></svg>